[img]http://img826.imageshack.us/img826/7859/thetownmovieposter.jpg[/img]
[code]
The Town TS READNFO XViD - IMAGiNE

Ripper ...........: IMAGiNE                                        IMDB Rating.......:8.3/10                             

Video Codec.......: XVID                                         Release Date......:30/11/10
Audio Codec.......:MP3                                           Theatre Date......:17/09/10
Audio Bitrate.....:128                                              Runtime.......:1h 50mn
Subtitles.........:NIL                                                 Language..........:ENGLISH
Resolution...... 720 x 400                                      IMDb URL.......... http://www.imdb.com/title/tt0840361/

DETAILS:
Video
ID                               : 0
Format                           : MPEG-4 Visual
Format profile                   : Advanced Simple@L5
Format settings, BVOP            : Yes
Format settings, QPel            : No
Format settings, GMC             : No warppoints
Format settings, Matrix          : Default (MPEG)
Muxing mode                      : Packed bitstream
Codec ID                         : XVID
Codec ID/Hint                    : XviD
Duration                         : 1h 50mn
Bit rate                         : 1 574 Kbps
Width                            : 720 pixels
Height                           : 400 pixels
Display aspect ratio             : 16/9
Frame rate                       : 23.976 fps
Resolution                       : 24 bits
Colorimetry                      : 4:2:0
Scan type                        : Progressive
Bits/(Pixel*Frame)               : 0.228
Stream size                      : 1.21 GiB (92%)
Writing library                  : XviD 1.2.1 (UTC 2008-12-04)



Audio
ID                               : 1
Format                           : MPEG Audio
Format version                   : Version 1
Format profile                   : Layer 3
Codec ID                         : 55
Codec ID/Hint                    : MP3
Duration                         : 1h 50mn
Bit rate mode                    : Constant
Bit rate                         : 128 Kbps
Channel(s)                       : 2 channels
Sampling rate                    : 44.1 KHz
Resolution                       : 16 bits
Stream size                      : 101 MiB (7%)
Alignment                        : Split accross interleaves
Interleave, duration             : 42 ms (1.00 video frame)
Interleave, preload duration     : 500 ms

SOURCES:
VIDEO:The Town CAM AC3 RERiP XViD - IMAGiNE
AUDIO:OWN LiNE



NOTES:
IMAGiNE bringing you another release..........The Town 2010
Ok first the readnfo .....well basically this is just our cam rip with line audio added,however our cam release
was and still is missing 6mins of video 
There is no other sources so we can't add the missing video and yes to some this might be pointless but you've been 
warned and also some might still want it so.....
However we do believe the retail is due end of dec we think so ......
Audio is just our line muxed to our old cam release......was pretty easy until we came across the missing scenes,but got there
in the end.

Enjoy folks
[/code]
Screens:
[img]http://img686.imageshack.us/img686/8894/vlcsnap233138.png[/img]
[img]http://img816.imageshack.us/img816/7343/vlcsnap235479.png[/img]